<?xml version="1.0" encoding="UTF-8"?>
<svg version="1.1" xmlns="http://www.w3.org/2000/svg" width="310" height="310">
<path d="M0 0 C102.3 0 204.6 0 310 0 C310 102.3 310 204.6 310 310 C207.7 310 105.4 310 0 310 C0 207.7 0 105.4 0 0 Z " fill="#1A1966" transform="translate(0,0)"/>
<path d="M0 0 C3.63648051 3.41940927 7.18482917 6.90343824 10.49609375 10.63964844 C10.49609375 11.29964844 10.49609375 11.95964844 10.49609375 12.63964844 C11.15609375 12.63964844 11.81609375 12.63964844 12.49609375 12.63964844 C14.22265625 14.94042969 14.22265625 14.94042969 16.12109375 17.95214844 C16.75273437 18.93828125 17.384375 19.92441406 18.03515625 20.94042969 C19.49609375 23.63964844 19.49609375 23.63964844 19.49609375 26.63964844 C20.15609375 26.63964844 20.81609375 26.63964844 21.49609375 26.63964844 C24.47557232 42.70755073 25.86609168 60.2061658 19.49609375 75.63964844 C17.5546875 78.25292969 17.5546875 78.25292969 15.49609375 80.63964844 C14.42338657 82.21608429 13.36088841 83.79951428 12.30859375 85.38964844 C7.52817629 92.2672813 1.97803673 98.67496436 -5.50390625 102.63964844 C-6.16390625 102.63964844 -6.82390625 102.63964844 -7.50390625 102.63964844 C-7.50390625 103.29964844 -7.50390625 103.95964844 -7.50390625 104.63964844 C-22.23400767 112.70219191 -39.26576299 114.79230866 -55.44140625 110.61230469 C-63.73295919 107.97889055 -72.01135079 103.4691344 -78.50390625 97.63964844 C-78.50390625 96.64964844 -78.50390625 95.65964844 -78.50390625 94.63964844 C-77.18390625 94.63964844 -75.86390625 94.63964844 -74.50390625 94.63964844 C-74.83390625 93.64964844 -75.16390625 92.65964844 -75.50390625 91.63964844 C-74.2109375 89.41308594 -74.2109375 89.41308594 -72.31640625 87.01464844 C-71.70410156 86.21800781 -71.09179688 85.42136719 -70.4609375 84.60058594 C-67.84117928 81.97559865 -66.05726435 81.74101922 -62.46875 81.50683594 C-59.22675921 81.51932916 -56.5984745 81.60812569 -53.50390625 82.63964844 C-53.50390625 79.66964844 -53.50390625 76.69964844 -53.50390625 73.63964844 C-56.14390625 73.63964844 -58.78390625 73.63964844 -61.50390625 73.63964844 C-59.66562757 70.48831355 -57.74417919 67.51999936 -55.50390625 64.63964844 C-56.28765625 64.10339844 -57.07140625 63.56714844 -57.87890625 63.01464844 C-63.44733903 57.97654259 -63.02568726 50.71225563 -63.50390625 43.63964844 C-69.99912017 44.84246583 -73.27796261 48.25372098 -77.00390625 53.51464844 C-79.9110418 57.59896916 -82.87663467 61.17386497 -86.50390625 64.63964844 C-86.83390625 64.96964844 -87.16390625 65.29964844 -87.50390625 65.63964844 C-89.1700774 65.68028676 -90.8377872 65.68236944 -92.50390625 65.63964844 C-95.42894292 59.7895751 -92.28322852 50.53365345 -90.50390625 44.63964844 C-90.06957225 41.64756975 -89.76343481 38.6515457 -89.50390625 35.63964844 C-98.09878641 38.09532848 -102.36880148 42.18287475 -106.87890625 49.57714844 C-107.3493335 50.32552979 -107.81976074 51.07391113 -108.30444336 51.8449707 C-109.71829935 54.10152232 -111.11392592 56.36832728 -112.50390625 58.63964844 C-112.91560059 59.30996094 -113.32729492 59.98027344 -113.75146484 60.67089844 C-114.1377002 61.29996094 -114.52393555 61.92902344 -114.921875 62.57714844 C-115.28684082 63.17148682 -115.65180664 63.7658252 -116.02783203 64.37817383 C-117.00737248 65.98057674 -117.97667881 67.58922281 -118.9453125 69.19824219 C-120.50390625 71.63964844 -120.50390625 71.63964844 -122.50390625 73.63964844 C-125.06640625 73.82714844 -125.06640625 73.82714844 -127.50390625 73.63964844 C-128.50390625 72.63964844 -128.50390625 72.63964844 -128.5234375 70.19042969 C-127.68721119 57.110588 -124.65478293 43.26459579 -116.50390625 32.63964844 C-113.78125 31.78417969 -113.78125 31.78417969 -111.50390625 31.63964844 C-111.50390625 32.95964844 -111.50390625 34.27964844 -111.50390625 35.63964844 C-112.16390625 35.63964844 -112.82390625 35.63964844 -113.50390625 35.63964844 C-113.54515625 36.54714844 -113.58640625 37.45464844 -113.62890625 38.38964844 C-114.30713354 43.30679631 -116.74398807 47.35603482 -119.0078125 51.70996094 C-121.99018027 57.55010669 -123.82428956 63.11532825 -124.50390625 69.63964844 C-123.84390625 69.63964844 -123.18390625 69.63964844 -122.50390625 69.63964844 C-122.24609375 68.78113281 -121.98828125 67.92261719 -121.72265625 67.03808594 C-120.45829592 63.5124658 -118.88807307 60.49807031 -117.00390625 57.26464844 C-116.39546875 56.20503906 -115.78703125 55.14542969 -115.16015625 54.05371094 C-114.61359375 53.25707031 -114.06703125 52.46042969 -113.50390625 51.63964844 C-112.84390625 51.63964844 -112.18390625 51.63964844 -111.50390625 51.63964844 C-111.4059375 50.90746094 -111.30796875 50.17527344 -111.20703125 49.42089844 C-109.54141658 42.83246709 -103.38742848 37.12720941 -98.50390625 32.63964844 C-97.88515625 32.04152344 -97.26640625 31.44339844 -96.62890625 30.82714844 C-93.44768671 29.04940811 -91.07129979 29.18561653 -87.50390625 29.63964844 C-85.34869704 31.78988026 -84.57562729 33.17908688 -84.10546875 36.19824219 C-84.16906054 44.00943314 -85.46298443 51.10767505 -87.50390625 58.63964844 C-85.52390625 58.14464844 -85.52390625 58.14464844 -83.50390625 57.63964844 C-83.27703125 56.60839844 -83.05015625 55.57714844 -82.81640625 54.51464844 C-81.6152959 50.27187735 -79.56826079 47.78061184 -76.50390625 44.63964844 C-75.84390625 44.63964844 -75.18390625 44.63964844 -74.50390625 44.63964844 C-74.17390625 43.64964844 -73.84390625 42.65964844 -73.50390625 41.63964844 C-69.40811155 37.41973875 -66.16103296 36.91786778 -60.50390625 36.63964844 C-59.84390625 36.96964844 -59.18390625 37.29964844 -58.50390625 37.63964844 C-58.50390625 38.62964844 -58.50390625 39.61964844 -58.50390625 40.63964844 C-57.84390625 40.63964844 -57.18390625 40.63964844 -56.50390625 40.63964844 C-56.44332031 41.69925781 -56.38273437 42.75886719 -56.3203125 43.85058594 C-56.23590498 45.23862065 -56.15125708 46.62664076 -56.06640625 48.01464844 C-56.02708984 48.71332031 -55.98777344 49.41199219 -55.94726562 50.13183594 C-55.76110491 54.01325336 -55.76110491 54.01325336 -54.50390625 57.63964844 C-52.60136626 57.50544461 -52.60136626 57.50544461 -50.50390625 56.63964844 C-48.71136669 54.45168696 -48.71136669 54.45168696 -47.25390625 51.76464844 C-46.733125 50.88035156 -46.21234375 49.99605469 -45.67578125 49.08496094 C-44.28782175 46.64068759 -44.28782175 46.64068759 -44.50390625 43.63964844 C-46.70136691 41.95584041 -48.85391222 40.48011663 -51.19140625 39.01464844 C-52.57100578 38.12379407 -53.94989919 37.23184535 -55.328125 36.33886719 C-56.02728027 35.88946777 -56.72643555 35.44006836 -57.44677734 34.97705078 C-60.50784704 32.98695586 -63.50859647 30.914426 -66.50390625 28.82714844 C-68.08945313 27.72693359 -68.08945313 27.72693359 -69.70703125 26.60449219 C-71.90957951 25.05717127 -74.08657457 23.48532153 -76.25390625 21.88964844 C-80.18660233 19.16701269 -84.28646736 16.88703651 -88.50390625 14.63964844 C-87.75619712 8.25421247 -81.12483454 3.65907083 -76.50390625 -0.36035156 C-55.03286221 -17.14339472 -21.00316497 -18.99831741 0 0 Z " fill="#212079" transform="translate(208.50390625,105.3603515625)"/>
<path d="M0 0 C2.15520921 2.15023182 2.92827896 3.53943845 3.3984375 6.55859375 C3.33484571 14.3697847 2.04092182 21.46802662 0 29 C1.32 28.67 2.64 28.34 4 28 C4.226875 26.96875 4.45375 25.9375 4.6875 24.875 C5.88861035 20.63222891 7.93564546 18.1409634 11 15 C11.66 15 12.32 15 13 15 C13.33 14.01 13.66 13.02 14 12 C18.0957947 7.78009031 21.34287329 7.27821935 27 7 C27.99 7.495 27.99 7.495 29 8 C29 8.99 29 9.98 29 11 C29.66 11 30.32 11 31 11 C31.04898438 12.02480469 31.09796875 13.04960937 31.1484375 14.10546875 C31.22351071 15.4661706 31.29905655 16.82684644 31.375 18.1875 C31.4059375 18.86103516 31.436875 19.53457031 31.46875 20.22851562 C31.70103922 24.19678975 32.28387476 27.40729879 34 31 C50.45509594 28.48990062 62.85843288 17.57911482 73.96875 5.90625 C76 4 76 4 78 4 C77.5838749 8.46000747 74.48455893 10.92972463 71.4375 13.875 C70.89029297 14.41020264 70.34308594 14.94540527 69.77929688 15.49682617 C51.64881698 33 51.64881698 33 42 33 C42 33.66 42 34.32 42 35 C33.14300833 35.61912951 33.14300833 35.61912951 29 33.375 C24.3188058 27.81608189 24.47096269 20.96529035 24 14 C17.50478608 15.20281739 14.22594364 18.61407254 10.5 23.875 C7.59286445 27.95932072 4.62727158 31.53421654 1 35 C0.67 35.33 0.34 35.66 0 36 C-1.66617115 36.04063832 -3.33388095 36.042721 -5 36 C-7.92503667 30.14992667 -4.77932227 20.89400501 -3 15 C-2.565666 12.00792132 -2.25952856 9.01189726 -2 6 C-10.59488016 8.45568005 -14.86489523 12.54322631 -19.375 19.9375 C-19.84542725 20.68588135 -20.31585449 21.4342627 -20.80053711 22.20532227 C-22.2143931 24.46187389 -23.61001967 26.72867884 -25 29 C-25.41169434 29.6703125 -25.82338867 30.340625 -26.24755859 31.03125 C-26.63379395 31.6603125 -27.0200293 32.289375 -27.41796875 32.9375 C-27.78293457 33.53183838 -28.14790039 34.12617676 -28.52392578 34.73852539 C-29.50346623 36.3409283 -30.47277256 37.94957437 -31.44140625 39.55859375 C-33 42 -33 42 -35 44 C-37.5625 44.1875 -37.5625 44.1875 -40 44 C-41 43 -41 43 -41.01953125 40.55078125 C-40.18330494 27.47093956 -37.15087668 13.62494735 -29 3 C-26.27734375 2.14453125 -26.27734375 2.14453125 -24 2 C-24 3.32 -24 4.64 -24 6 C-24.66 6 -25.32 6 -26 6 C-26.04125 6.9075 -26.0825 7.815 -26.125 8.75 C-26.80322729 13.66714788 -29.24008182 17.71638638 -31.50390625 22.0703125 C-34.48627402 27.91045825 -36.32038331 33.47567982 -37 40 C-36.34 40 -35.68 40 -35 40 C-34.7421875 39.14148438 -34.484375 38.28296875 -34.21875 37.3984375 C-32.95438967 33.87281736 -31.38416682 30.85842187 -29.5 27.625 C-28.8915625 26.56539062 -28.283125 25.50578125 -27.65625 24.4140625 C-27.1096875 23.61742187 -26.563125 22.82078125 -26 22 C-25.34 22 -24.68 22 -24 22 C-23.85304688 20.90171875 -23.85304688 20.90171875 -23.703125 19.78125 C-22.03751033 13.19281865 -15.88352223 7.48756097 -11 3 C-10.38125 2.401875 -9.7625 1.80375 -9.125 1.1875 C-5.94378046 -0.59024033 -3.56739354 -0.4540319 0 0 Z " fill="#C2C2CD" transform="translate(121,135)"/>
<path d="M0 0 C3.63648051 3.41940927 7.18482917 6.90343824 10.49609375 10.63964844 C10.49609375 11.29964844 10.49609375 11.95964844 10.49609375 12.63964844 C11.15609375 12.63964844 11.81609375 12.63964844 12.49609375 12.63964844 C14.22265625 14.94042969 14.22265625 14.94042969 16.12109375 17.95214844 C17.06855469 19.43134766 17.06855469 19.43134766 18.03515625 20.94042969 C19.49609375 23.63964844 19.49609375 23.63964844 19.49609375 26.63964844 C20.15609375 26.63964844 20.81609375 26.63964844 21.49609375 26.63964844 C24.47557232 42.70755073 25.86609168 60.2061658 19.49609375 75.63964844 C17.5546875 78.25292969 17.5546875 78.25292969 15.49609375 80.63964844 C14.42338657 82.21608429 13.36088841 83.79951428 12.30859375 85.38964844 C7.52817629 92.2672813 1.97803673 98.67496436 -5.50390625 102.63964844 C-6.16390625 102.63964844 -6.82390625 102.63964844 -7.50390625 102.63964844 C-7.50390625 103.29964844 -7.50390625 103.95964844 -7.50390625 104.63964844 C-22.23400767 112.70219191 -39.26576299 114.79230866 -55.44140625 110.61230469 C-63.73295919 107.97889055 -72.01135079 103.4691344 -78.50390625 97.63964844 C-78.50390625 96.64964844 -78.50390625 95.65964844 -78.50390625 94.63964844 C-75.18964784 95.25367399 -73.18683993 96.44502949 -70.50390625 98.45214844 C-59.60698885 105.92021704 -47.28624721 106.66440858 -34.50390625 107.20214844 C-33.05564453 107.26692383 -33.05564453 107.26692383 -31.578125 107.33300781 C-29.220162 107.43806557 -26.86211209 107.54021758 -24.50390625 107.63964844 C-24.50390625 106.97964844 -24.50390625 106.31964844 -24.50390625 105.63964844 C-22.52390625 105.63964844 -20.54390625 105.63964844 -18.50390625 105.63964844 C-18.50390625 104.97964844 -18.50390625 104.31964844 -18.50390625 103.63964844 C-17.73046875 103.35992187 -16.95703125 103.08019531 -16.16015625 102.79199219 C-9.77099939 100.33279939 -4.91057407 97.82683664 -0.02734375 92.99511719 C1.49609375 91.63964844 1.49609375 91.63964844 3.49609375 91.63964844 C3.74359375 91.08277344 3.99109375 90.52589844 4.24609375 89.95214844 C6.23439241 86.27379592 8.97711082 83.24759987 11.68359375 80.07714844 C13.37778165 77.79875781 14.08633293 76.40553399 14.49609375 73.63964844 C15.15609375 73.63964844 15.81609375 73.63964844 16.49609375 73.63964844 C16.61984375 72.95902344 16.74359375 72.27839844 16.87109375 71.57714844 C17.49609375 68.63964844 17.49609375 68.63964844 18.52294922 65.39526367 C19.50221359 61.61603039 19.72600091 58.5042038 19.69140625 54.61230469 C19.68496094 53.32646484 19.67851562 52.040625 19.671875 50.71582031 C19.65516976 49.3779269 19.63823994 48.04003627 19.62109375 46.70214844 C19.61104697 45.3369206 19.60192411 43.97168564 19.59375 42.60644531 C19.5702698 39.28399644 19.53742734 35.96191522 19.49609375 32.63964844 C18.83609375 32.63964844 18.17609375 32.63964844 17.49609375 32.63964844 C17.02558594 31.50785156 16.55507812 30.37605469 16.0703125 29.20996094 C15.4418812 27.72798861 14.81294879 26.24622871 14.18359375 24.76464844 C13.87486328 24.01828125 13.56613281 23.27191406 13.24804688 22.50292969 C12.94189453 21.7875 12.63574219 21.07207031 12.3203125 20.33496094 C12.04276123 19.67512207 11.76520996 19.0152832 11.47924805 18.33544922 C10.46652181 16.30099417 10.46652181 16.30099417 7.49609375 14.63964844 C6.90828125 13.55683594 6.90828125 13.55683594 6.30859375 12.45214844 C1.27223292 4.63710577 -8.57722634 -2.57206096 -17.4296875 -5.24316406 C-19.78902731 -5.71703429 -22.11181219 -6.10609428 -24.50390625 -6.36035156 C-24.50390625 -7.02035156 -24.50390625 -7.68035156 -24.50390625 -8.36035156 C-28.81713864 -8.27874865 -33.12903149 -8.16596829 -37.44140625 -8.04785156 C-38.65376953 -8.02529297 -39.86613281 -8.00273438 -41.11523438 -7.97949219 C-48.10394283 -7.77115671 -54.06608787 -7.14420603 -60.50390625 -4.36035156 C-61.6021875 -3.88855469 -62.70046875 -3.41675781 -63.83203125 -2.93066406 C-69.20912376 -0.27087231 -73.50992708 2.05831939 -77.50390625 6.63964844 C-78.55324127 7.53039378 -79.61635275 8.40511879 -80.69140625 9.26464844 C-83.62270971 11.51687178 -83.62270971 11.51687178 -85.50390625 14.63964844 C-86.49390625 14.63964844 -87.48390625 14.63964844 -88.50390625 14.63964844 C-87.75619712 8.25421247 -81.12483454 3.65907083 -76.50390625 -0.36035156 C-55.03286221 -17.14339472 -21.00316497 -18.99831741 0 0 Z " fill="#BFBEDC" transform="translate(208.50390625,105.3603515625)"/>
<path d="M0 0 C1.32 0 2.64 0 4 0 C4.33 1.32 4.66 2.64 5 4 C5.66 3.01 6.32 2.02 7 1 C8.65 1.33 10.3 1.66 12 2 C12 1.34 12 0.68 12 0 C22.89 0 33.78 0 45 0 C45 0.66 45 1.32 45 2 C45.66 2 46.32 2 47 2 C47 1.34 47 0.68 47 0 C50.3 0 53.6 0 57 0 C57 2.97 57 5.94 57 9 C56.30777344 8.98839844 55.61554688 8.97679687 54.90234375 8.96484375 C49.03094711 8.91069385 43.2325119 9.07692437 37.375 9.5 C23.75216922 10.46605891 23.75216922 10.46605891 20 10 C19.34 9.34 18.68 8.68 18 8 C17.01 8 16.02 8 15 8 C15 6.68 15 5.36 15 4 C14.01 4 13.02 4 12 4 C12 5.32 12 6.64 12 8 C1.44191344 8.18451025 1.44191344 8.18451025 -3 7 C-3 7.66 -3 8.32 -3 9 C-3.99 9 -4.98 9 -6 9 C-6 6.69 -6 4.38 -6 2 C-2 2 -2 2 0 3 C0 2.01 0 1.02 0 0 Z " fill="#403942" transform="translate(98,179)"/>
<path d="M0 0 C-0.4161251 4.46000747 -3.51544107 6.92972463 -6.5625 9.875 C-7.10970703 10.41020264 -7.65691406 10.94540527 -8.22070312 11.49682617 C-26.35118302 29 -26.35118302 29 -36 29 C-36 29.66 -36 30.32 -36 31 C-44.85699167 31.61912951 -44.85699167 31.61912951 -49 29.375 C-53.6811942 23.81608189 -53.52903731 16.96529035 -54 10 C-56.31051043 10.5445152 -58.35968896 11.14913932 -60.5625 12.0625 C-63 13 -63 13 -66 13 C-67.45034604 14.30456502 -67.45034604 14.30456502 -68.6875 16 C-69.450625 16.99 -70.21375 17.98 -71 19 C-71 15.06830895 -69.60580385 13.83572772 -67 11 C-66.34 11 -65.68 11 -65 11 C-64.67 10.01 -64.34 9.02 -64 8 C-59.9042053 3.78009031 -56.65712671 3.27821935 -51 3 C-50.34 3.33 -49.68 3.66 -49 4 C-49 4.99 -49 5.98 -49 7 C-48.34 7 -47.68 7 -47 7 C-46.95101562 8.02480469 -46.90203125 9.04960937 -46.8515625 10.10546875 C-46.77648929 11.4661706 -46.70094345 12.82684644 -46.625 14.1875 C-46.57859375 15.19780273 -46.57859375 15.19780273 -46.53125 16.22851562 C-46.29896078 20.19678975 -45.71612524 23.40729879 -44 27 C-27.54490406 24.48990062 -15.14156712 13.57911482 -4.03125 1.90625 C-2 0 -2 0 0 0 Z " fill="#E3E3E8" transform="translate(199,139)"/>
<path d="M0 0 C7.04370986 3.76756574 13.47639536 8.4147934 20 13 C21.93745009 14.35423807 23.87494442 15.70841286 25.8125 17.0625 C27.20858248 18.0413114 28.60452042 19.02032924 30 20 C29.43957711 23.67817783 28.4857904 26.21380426 26.4375 29.3125 C25.75494141 30.35857422 25.75494141 30.35857422 25.05859375 31.42578125 C24.70925781 31.94527344 24.35992187 32.46476562 24 33 C25.32 33.66 26.64 34.32 28 35 C26.54257537 35.08096803 25.08387193 35.13917774 23.625 35.1875 C22.81289062 35.22230469 22.00078125 35.25710937 21.1640625 35.29296875 C20.44992188 35.19628906 19.73578125 35.09960938 19 35 C16.54608431 31.31912647 16.77197241 28.55644412 16.875 24.3125 C16.88402344 23.61060547 16.89304688 22.90871094 16.90234375 22.18554688 C16.92586296 20.45688475 16.96173287 18.72839855 17 17 C16.34 17 15.68 17 15 17 C15 16.01 15 15.02 15 14 C13.865625 13.87625 12.73125 13.7525 11.5625 13.625 C9.7990625 13.315625 9.7990625 13.315625 8 13 C7.67 12.34 7.34 11.68 7 11 C8.65 10.67 10.3 10.34 12 10 C11.13375 9.44570312 10.2675 8.89140625 9.375 8.3203125 C8.24976195 7.58890777 7.1247748 6.85711693 6 6.125 C5.42765625 5.76019531 4.8553125 5.39539063 4.265625 5.01953125 C2.80818084 4.06525233 1.39962775 3.03722413 0 2 C0 1.34 0 0.68 0 0 Z " fill="#111142" transform="translate(135,129)"/>
<path d="M0 0 C3.375 -0.1875 3.375 -0.1875 7 0 C10.66746552 5.50119828 9.48098808 12.3809782 8.32421875 18.6796875 C7.60303555 21.80367539 6.83848078 24.90560663 6 28 C7.98208882 27.66346721 7.98208882 27.66346721 10 27 C10.68346682 25.34015202 11.34588315 23.67163195 12 22 C13.80152291 19.47786792 15.67314844 17.05449744 18 15 C18.99 15 19.98 15 21 15 C18.9180059 20.97905998 15.04999918 25.23069594 11 30 C10.27683594 30.87011719 10.27683594 30.87011719 9.5390625 31.7578125 C7.43699964 34.1008762 6.36739206 34.95917866 3.1875 35.3125 C2.1046875 35.1578125 2.1046875 35.1578125 1 35 C-0.38264561 32.23470877 0.024754 30.19585382 0.25 27.125 C0.31703125 26.07570312 0.3840625 25.02640625 0.453125 23.9453125 C1 21 1 21 2.50390625 19.0390625 C4.61155166 16.16650139 4.51151925 13.76961497 4.6875 10.25 C4.75324219 9.07953125 4.81898437 7.9090625 4.88671875 6.703125 C4.92410156 5.81109375 4.96148437 4.9190625 5 4 C4.34 4 3.68 4 3 4 C3 3.34 3 2.68 3 2 C2.01 2 1.02 2 0 2 C0 1.34 0 0.68 0 0 Z " fill="#DCDCE2" transform="translate(115,136)"/>
<path d="M0 0 C1.32 0.33 2.64 0.66 4 1 C3.2575 1.54527344 2.515 2.09054688 1.75 2.65234375 C-1.11977097 5.10224766 -2.90932062 7.43056429 -5 10.5625 C-5.77597704 11.71228321 -6.5520232 12.86201976 -7.328125 14.01171875 C-7.74900391 14.64126465 -8.16988281 15.27081055 -8.60351562 15.91943359 C-10.72472483 19.07973864 -12.87687908 22.21868788 -15.02734375 25.35913086 C-16.15138457 27.0007466 -17.2738546 28.64343932 -18.39453125 30.28735352 C-20.79485672 33.80490665 -23.20832082 37.30648026 -25.703125 40.7578125 C-27.94089539 43.82886748 -27.94089539 43.82886748 -29.5 46.50390625 C-31.85708637 50.42624529 -34.61544201 54.05816614 -37.328125 57.74023438 C-39.94971306 61.35281431 -42.1120759 64.93226879 -44 69 C-43.48953125 69.22816406 -42.9790625 69.45632812 -42.453125 69.69140625 C-39.03954224 71.5123461 -35.91897301 73.72848534 -32.75 75.9375 C-31.32307779 76.92731565 -29.89598939 77.91689176 -28.46875 78.90625 C-27.73527344 79.41542969 -27.00179688 79.92460937 -26.24609375 80.44921875 C-24.01599262 81.98895814 -21.77573661 83.51257277 -19.53125 85.03125 C-18.81356445 85.51859619 -18.09587891 86.00594238 -17.35644531 86.50805664 C-15.98295084 87.44011623 -14.60739083 88.36914142 -13.22949219 89.29467773 C-9.81782095 91.61862688 -6.8111786 93.94035864 -4 97 C-7.81688534 95.61352824 -10.98084526 93.84323689 -14.3515625 91.5859375 C-15.36863281 90.90660156 -16.38570312 90.22726563 -17.43359375 89.52734375 C-18.48675781 88.81707031 -19.53992188 88.10679687 -20.625 87.375 C-21.65496094 86.68792969 -22.68492188 86.00085938 -23.74609375 85.29296875 C-29.89834192 81.16825394 -35.91521715 76.91015025 -41.83349609 72.45556641 C-43.84167637 70.81410817 -43.84167637 70.81410817 -46 71 C-46.3125 67.8125 -46.3125 67.8125 -46 64 C-43.75 61.4375 -43.75 61.4375 -41 59 C-40.05287805 57.62656818 -39.11115682 56.24892117 -38.20458984 54.84838867 C-36.79488673 52.68526296 -35.33554257 50.56003277 -33.87109375 48.43359375 C-33.03094727 47.2105957 -33.03094727 47.2105957 -32.17382812 45.96289062 C-31.0131984 44.27482062 -29.8517354 42.58732323 -28.68945312 40.90039062 C-26.43170256 37.61141835 -24.21278844 34.36992453 -22.22265625 30.91015625 C-21.81917969 30.27980469 -21.41570313 29.64945313 -21 29 C-20.34 29 -19.68 29 -19 29 C-18.73195557 28.26934326 -18.46391113 27.53868652 -18.18774414 26.78588867 C-17.02222781 24.05213597 -15.69217148 21.85869873 -13.99609375 19.42578125 C-13.42052734 18.59369141 -12.84496094 17.76160156 -12.25195312 16.90429688 C-11.65318359 16.04900391 -11.05441406 15.19371094 -10.4375 14.3125 C-9.24769259 12.60095885 -8.05884224 10.88875186 -6.87109375 9.17578125 C-6.34443115 8.42208252 -5.81776855 7.66838379 -5.27514648 6.8918457 C-3.96175466 5.03106692 -3.96175466 5.03106692 -3 3 C-2.34 3 -1.68 3 -1 3 C-0.67 2.01 -0.34 1.02 0 0 Z " fill="#090925" transform="translate(46,69)"/>
<path d="M0 0 C1.21236328 0.01353516 1.21236328 0.01353516 2.44921875 0.02734375 C3.37154297 0.04474609 3.37154297 0.04474609 4.3125 0.0625 C4.3125 0.7225 4.3125 1.3825 4.3125 2.0625 C4.9725 2.0625 5.6325 2.0625 6.3125 2.0625 C6.3125 1.4025 6.3125 0.7425 6.3125 0.0625 C9.6125 0.0625 12.9125 0.0625 16.3125 0.0625 C16.3125 3.0325 16.3125 6.0025 16.3125 9.0625 C15.62027344 9.05089844 14.92804688 9.03929687 14.21484375 9.02734375 C7.06795171 8.96143038 0.02103459 9.3187503 -7.10546875 9.83984375 C-11.63994693 10.12170335 -16.14678935 10.15865623 -20.6875 10.0625 C-20.6875 9.4025 -20.6875 8.7425 -20.6875 8.0625 C-20.0275 8.0625 -19.3675 8.0625 -18.6875 8.0625 C-18.6875 7.4025 -18.6875 6.7425 -18.6875 6.0625 C-17.6975 6.0625 -16.7075 6.0625 -15.6875 6.0625 C-15.6875 6.7225 -15.6875 7.3825 -15.6875 8.0625 C-15.06101562 7.97871094 -14.43453125 7.89492187 -13.7890625 7.80859375 C-12.97179687 7.70675781 -12.15453125 7.60492188 -11.3125 7.5 C-10.50039062 7.39558594 -9.68828125 7.29117188 -8.8515625 7.18359375 C-6.6875 7.0625 -6.6875 7.0625 -4.6875 8.0625 C-5.6775 5.7525 -6.6675 3.4425 -7.6875 1.0625 C-4.80538698 0.10179566 -2.98899956 -0.04331883 0 0 Z " fill="#3D3749" transform="translate(138.6875,178.9375)"/>
<path d="M0 0 C-3.38391578 1.05127928 -6.33203425 1.04087598 -9.859375 0.87890625 C-11.53193359 0.80639648 -11.53193359 0.80639648 -13.23828125 0.73242188 C-14.97658203 0.64831055 -14.97658203 0.64831055 -16.75 0.5625 C-17.92433594 0.51029297 -19.09867188 0.45808594 -20.30859375 0.40429688 C-23.20600664 0.27473776 -26.10306493 0.13977553 -29 0 C-29 0.66 -29 1.32 -29 2 C-22.73 2 -16.46 2 -10 2 C-10 2.33 -10 2.66 -10 3 C-10.55872803 3.01458252 -11.11745605 3.02916504 -11.69311523 3.04418945 C-14.27520052 3.11960798 -16.85612184 3.21594881 -19.4375 3.3125 C-20.75524414 3.34633789 -20.75524414 3.34633789 -22.09960938 3.38085938 C-33.38769259 3.83904725 -45.3547868 7.96839693 -53.875 15.5625 C-54.57625 16.366875 -55.2775 17.17125 -56 18 C-57.04933502 18.89074534 -58.1124465 19.76547035 -59.1875 20.625 C-62.11880346 22.87722335 -62.11880346 22.87722335 -64 26 C-64.99 26 -65.98 26 -67 26 C-66.25229087 19.61456403 -59.62092829 15.0194224 -55 11 C-38.74257257 -1.70777079 -19.70081004 -4.26787374 0 0 Z " fill="#C3C3D5" transform="translate(187,94)"/>
<path d="M0 0 C-0.4161251 4.46000747 -3.51544107 6.92972463 -6.5625 9.875 C-7.10970703 10.41020264 -7.65691406 10.94540527 -8.22070312 11.49682617 C-26.35118302 29 -26.35118302 29 -36 29 C-36 29.66 -36 30.32 -36 31 C-39.3 31 -42.6 31 -46 31 C-46 30.67 -46 30.34 -46 30 C-42.04 29.505 -42.04 29.505 -38 29 C-39.65 28.67 -41.3 28.34 -43 28 C-43 27.67 -43 27.34 -43 27 C-41.948125 26.814375 -40.89625 26.62875 -39.8125 26.4375 C-25.36398629 22.78061954 -14.02122149 12.40204283 -4.03125 1.90625 C-2 0 -2 0 0 0 Z " fill="#C3C2D9" transform="translate(199,139)"/>
<path d="M0 0 C3.31425841 0.61402555 5.31706632 1.80538105 8 3.8125 C19.83948646 11.76268656 33.17875181 12.09235797 47 13 C47 13.33 47 13.66 47 14 C41.06 14.33 35.12 14.66 29 15 C34.61 15.66 40.22 16.32 46 17 C46 17.33 46 17.66 46 18 C28.90155436 18.75557779 12.9981765 14.67070316 0 3 C0 2.01 0 1.02 0 0 Z " fill="#9E9EBF" transform="translate(130,200)"/>
<path d="M0 0 C1.9375 1 1.9375 1 4 3 C5.04402275 8.96489432 5.21316427 14.89183533 5.25 20.9375 C5.270625 21.77990234 5.29125 22.62230469 5.3125 23.49023438 C5.35806588 30.88899492 4.16239053 38.34595323 -1 44 C-0.1130538 36.39760401 -0.1130538 36.39760401 0.51147461 34.20117188 C1.08277136 31.62705316 1.12962676 29.27751006 1.1328125 26.640625 C1.13410156 25.60679687 1.13539063 24.57296875 1.13671875 23.5078125 C1.13285156 22.43273437 1.12898437 21.35765625 1.125 20.25 C1.12886719 19.19039062 1.13273438 18.13078125 1.13671875 17.0390625 C1.12955339 11.26378009 0.86901674 5.71068141 0 0 Z " fill="#E0E0F0" transform="translate(227,135)"/>
<path d="M0 0 C1.32 0 2.64 0 4 0 C4.33 1.32 4.66 2.64 5 4 C5.66 3.01 6.32 2.02 7 1 C7.99 1 8.98 1 10 1 C11.4606285 3.64738916 12 4.89448334 12 8 C1.44191344 8.18451025 1.44191344 8.18451025 -3 7 C-3 7.66 -3 8.32 -3 9 C-3.99 9 -4.98 9 -6 9 C-6 6.69 -6 4.38 -6 2 C-2 2 -2 2 0 3 C0 2.01 0 1.02 0 0 Z " fill="#736749" transform="translate(98,179)"/>
<path d="M0 0 C3.375 -0.1875 3.375 -0.1875 7 0 C10.59164015 5.38746023 9.14312745 12.28057849 8.8125 18.5625 C8 21 8 21 5.4375 22.875 C4.2309375 23.431875 4.2309375 23.431875 3 24 C2.95745644 22.00045254 2.95919217 19.99958364 3 18 C3.33 17.67 3.66 17.34 4 17 C4.23481693 14.81707226 4.41363323 12.62796826 4.5625 10.4375 C4.64628906 9.23996094 4.73007813 8.04242188 4.81640625 6.80859375 C4.87699219 5.88175781 4.93757813 4.95492187 5 4 C4.34 4 3.68 4 3 4 C3 3.34 3 2.68 3 2 C2.01 2 1.02 2 0 2 C0 1.34 0 0.68 0 0 Z " fill="#F4F4F6" transform="translate(115,136)"/>
<path d="M0 0 C-0.33 0.99 -0.66 1.98 -1 3 C-10.97140692 6.26649537 -22.05216347 6.22217841 -32 3 C-32 2.67 -32 2.34 -32 2 C-30.70964844 1.93941406 -29.41929687 1.87882813 -28.08984375 1.81640625 C-26.37238745 1.73194119 -24.65493998 1.64729623 -22.9375 1.5625 C-22.08994141 1.52318359 -21.24238281 1.48386719 -20.36914062 1.44335938 C-13.54292293 1.10073069 -6.83284037 -0.16665464 0 0 Z " fill="#D8D8E6" transform="translate(190,212)"/>
<path d="M0 0 C3.3 0 6.6 0 10 0 C10 2.97 10 5.94 10 9 C8.35369672 8.85957123 6.70795821 8.71250671 5.0625 8.5625 C3.68771484 8.44068359 3.68771484 8.44068359 2.28515625 8.31640625 C0 8 0 8 -1 7 C-0.71269945 4.66055264 -0.38063221 2.3260857 0 0 Z " fill="#413B60" transform="translate(145,179)"/>
<path d="M0 0 C0.80941275 2.31894503 1.16631217 3.54861456 0.30322266 5.89111328 C-0.0727002 6.52774902 -0.44862305 7.16438477 -0.8359375 7.8203125 C-1.24070312 8.52027344 -1.64546875 9.22023437 -2.0625 9.94140625 C-2.495625 10.66199219 -2.92875 11.38257813 -3.375 12.125 C-3.80039063 12.85332031 -4.22578125 13.58164063 -4.6640625 14.33203125 C-5.45177628 15.68061719 -6.24471261 17.02617536 -7.04443359 18.36767578 C-7.73913611 19.55438528 -8.38503805 20.77007609 -9 22 C-9.66 22 -10.32 22 -11 22 C-11.34270482 16.51672287 -10.90642935 11.7870601 -8 7 C-5.78984013 5.01536665 -3.531086 3.59364674 -1 2 C-0.67 1.34 -0.34 0.68 0 0 Z " fill="#12123F" transform="translate(95,153)"/>
<path d="M0 0 C0 0.33 0 0.66 0 1 C-1.98 1 -3.96 1 -6 1 C-6 1.66 -6 2.32 -6 3 C-5.01 3 -4.02 3 -3 3 C-3 3.66 -3 4.32 -3 5 C-2.34 5 -1.68 5 -1 5 C-1 9.29 -1 13.58 -1 18 C-1.66 18.33 -2.32 18.66 -3 19 C-2.67 14.71 -2.34 10.42 -2 6 C-6.3700852 7.44671939 -6.3700852 7.44671939 -10.625 9.1875 C-13.25750426 10.08809356 -14.43062023 9.95162214 -17 9 C-7.66548583 -0.60121457 -7.66548583 -0.60121457 0 0 Z " fill="#B6B6C4" transform="translate(121,135)"/>
<path d="M0 0 C-2.22992698 4.58143932 -4.86533213 8.89292652 -7.5 13.25 C-8.24830078 14.51070312 -8.24830078 14.51070312 -9.01171875 15.796875 C-9.49253906 16.5909375 -9.97335938 17.385 -10.46875 18.203125 C-10.90638672 18.93176758 -11.34402344 19.66041016 -11.79492188 20.41113281 C-12.39143555 21.19762207 -12.39143555 21.19762207 -13 22 C-13.66 22 -14.32 22 -15 22 C-14.34 19.03 -13.68 16.06 -13 13 C-12.34 13 -11.68 13 -11 13 C-10.938125 12.319375 -10.87625 11.63875 -10.8125 10.9375 C-9.73212483 7.03152825 -7.76004433 3.96744651 -5 1 C-2 0 -2 0 0 0 Z " fill="#D7D7DE" transform="translate(108,144)"/>
<path d="M0 0 C-3.38391578 1.05127928 -6.33203425 1.04087598 -9.859375 0.87890625 C-11.53193359 0.80639648 -11.53193359 0.80639648 -13.23828125 0.73242188 C-14.97658203 0.64831055 -14.97658203 0.64831055 -16.75 0.5625 C-17.92433594 0.51029297 -19.09867188 0.45808594 -20.30859375 0.40429688 C-23.20600664 0.27473776 -26.10306493 0.13977553 -29 0 C-29 0.66 -29 1.32 -29 2 C-22.73 2 -16.46 2 -10 2 C-10 2.33 -10 2.66 -10 3 C-13.58286819 3.19720979 -17.16630057 3.38107522 -20.75 3.5625 C-21.76578125 3.61857422 -22.7815625 3.67464844 -23.828125 3.73242188 C-25.29765625 3.80493164 -25.29765625 3.80493164 -26.796875 3.87890625 C-27.69760742 3.9260376 -28.59833984 3.97316895 -29.52636719 4.02172852 C-32.73600188 3.99353492 -35.13891232 3.43054384 -38 2 C-25.43316262 -3.16137964 -13.15055728 -2.84886347 0 0 Z " fill="#8989B4" transform="translate(187,94)"/>
<path d="M0 0 C4.04165139 -0.02915731 8.0832755 -0.04685173 12.125 -0.0625 C13.83816406 -0.07506836 13.83816406 -0.07506836 15.5859375 -0.08789062 C16.69453125 -0.09111328 17.803125 -0.09433594 18.9453125 -0.09765625 C19.96125488 -0.10289307 20.97719727 -0.10812988 22.02392578 -0.11352539 C25.09114726 0.00347691 27.98633134 0.43223583 31 1 C31.33 1.99 31.66 2.98 32 4 C31.28199219 3.93941406 30.56398437 3.87882812 29.82421875 3.81640625 C19.8920276 3.01243063 9.95169993 2.49390697 0 2 C0 1.34 0 0.68 0 0 Z " fill="#E7E7F0" transform="translate(158,94)"/>
<path d="M0 0 C1.485 0.99 1.485 0.99 3 2 C3.44140625 4.609375 3.44140625 4.609375 3.5625 7.75 C3.75625778 11.36250611 3.96464012 13.90629631 5.25 17.3125 C6 20 6 20 4.875 23.8125 C3 27 3 27 0.8125 27.9375 C-0.0846875 27.9684375 -0.0846875 27.9684375 -1 28 C-0.06040268 21.2885906 -0.06040268 21.2885906 0.5625 18.3125 C1.35000369 12.34997207 1.91720042 5.75160125 0 0 Z " fill="#464669" transform="translate(122,136)"/>
<path d="M0 0 C4.53099675 0.54371961 7.83672603 1.71302455 11.8125 3.9375 C12.76769531 4.46214844 13.72289062 4.98679687 14.70703125 5.52734375 C17 7 17 7 18 9 C17.01 9 16.02 9 15 9 C15.33 9.66 15.66 10.32 16 11 C13.04840014 9.95825887 10.84037237 8.88120734 8.3125 7 C4.02220107 4.40963083 -0.09388379 3.73688702 -5 3 C-5 2.67 -5 2.34 -5 2 C-3.35 1.67 -1.7 1.34 0 1 C0 0.67 0 0.34 0 0 Z " fill="#B6B6D6" transform="translate(189,96)"/>
<path d="M0 0 C-0.556875 0.268125 -1.11375 0.53625 -1.6875 0.8125 C-4.19712523 2.10122647 -6.59334236 3.52926478 -9 5 C-7.2984375 4.9690625 -7.2984375 4.9690625 -5.5625 4.9375 C-2 5 -2 5 -1 6 C-0.92755947 8.01964199 -0.91622812 10.04167124 -0.9375 12.0625 C-0.94652344 13.16722656 -0.95554688 14.27195313 -0.96484375 15.41015625 C-0.97644531 16.26480469 -0.98804688 17.11945313 -1 18 C-1.33 18 -1.66 18 -2 18 C-2.33 14.37 -2.66 10.74 -3 7 C-6.81375506 7.84893213 -6.81375506 7.84893213 -9.5625 9.0625 C-12 10 -12 10 -15 10 C-16.45034604 11.30456502 -16.45034604 11.30456502 -17.6875 13 C-18.450625 13.99 -19.21375 14.98 -20 16 C-20 12.06830895 -18.60580385 10.83572772 -16 8 C-15.34 8 -14.68 8 -14 8 C-13.67 7.01 -13.34 6.02 -13 5 C-8.69300103 1.14636934 -5.75491777 -0.15553832 0 0 Z " fill="#A5A5B6" transform="translate(148,142)"/>
<path d="M0 0 C0.33 0 0.66 0 1 0 C1 1.65 1 3.3 1 5 C0.01 5 -0.98 5 -2 5 C-2 6.32 -2 7.64 -2 9 C-2.66 9 -3.32 9 -4 9 C-4 9.66 -4 10.32 -4 11 C-4.99 11 -5.98 11 -7 11 C-7 11.99 -7 12.98 -7 14 C-7.66 14 -8.32 14 -9 14 C-9 14.66 -9 15.32 -9 16 C-9.928125 16.12375 -9.928125 16.12375 -10.875 16.25 C-13.18437567 16.81258459 -13.18437567 16.81258459 -14.25 19.0625 C-14.4975 19.701875 -14.745 20.34125 -15 21 C-16.98 21 -18.96 21 -21 21 C-20.34 20.484375 -19.68 19.96875 -19 19.4375 C-11.79990178 13.5874202 -5.1774383 7.76615745 0 0 Z " fill="#43429B" transform="translate(222,188)"/>
<path d="M0 0 C9.53130231 5.09813845 18.2460007 11.68897725 27 18 C23.80389448 18 22.58282374 17.45328458 19.8125 16 C19.09707031 15.62875 18.38164062 15.2575 17.64453125 14.875 C17.10183594 14.58625 16.55914062 14.2975 16 14 C15.67 14.99 15.34 15.98 15 17 C15 16.01 15 15.02 15 14 C13.865625 13.87625 12.73125 13.7525 11.5625 13.625 C9.7990625 13.315625 9.7990625 13.315625 8 13 C7.67 12.34 7.34 11.68 7 11 C8.65 10.67 10.3 10.34 12 10 C11.13375 9.44570312 10.2675 8.89140625 9.375 8.3203125 C8.24976195 7.58890777 7.1247748 6.85711693 6 6.125 C5.42765625 5.76019531 4.8553125 5.39539063 4.265625 5.01953125 C2.80818084 4.06525233 1.39962775 3.03722413 0 2 C0 1.34 0 0.68 0 0 Z " fill="#16154C" transform="translate(135,129)"/>
<path d="M0 0 C0.78375 0.04125 1.5675 0.0825 2.375 0.125 C2.47265625 6.27734375 2.47265625 6.27734375 2.375 8.125 C1.375 9.125 1.375 9.125 -1.6875 9.1875 C-2.656875 9.166875 -3.62625 9.14625 -4.625 9.125 C-4.75 5.75 -4.75 5.75 -4.625 2.125 C-2.625 0.125 -2.625 0.125 0 0 Z " fill="#6B5F65" transform="translate(162.625,178.875)"/>
<path d="M0 0 C4.71867467 1.2738367 7.49017733 2.92194135 10.9375 6.375 C12.12666016 7.53128906 12.12666016 7.53128906 13.33984375 8.7109375 C15 11 15 11 14.75390625 13.2890625 C14.38072266 14.13597656 14.38072266 14.13597656 14 15 C12.03580523 13.03580523 10.07182948 11.07140276 8.109375 9.10546875 C6.87514262 7.87352198 5.63725604 6.64518006 4.390625 5.42578125 C1.10284582 2.20569164 1.10284582 2.20569164 0 0 Z " fill="#D5D5E8" transform="translate(203,104)"/>
<path d="M0 0 C-0.41314562 4.44926052 -3.50461527 6.84100104 -6.5625 9.75 C-7.08263672 10.25660156 -7.60277344 10.76320312 -8.13867188 11.28515625 C-9.41910084 12.53034405 -10.70867554 13.76611502 -12 15 C-12.99 14.34 -13.98 13.68 -15 13 C-12.88094537 10.82722286 -10.75527122 8.66173092 -8.625 6.5 C-8.02171875 5.87996094 -7.4184375 5.25992188 -6.796875 4.62109375 C-6.21679688 4.03457031 -5.63671875 3.44804687 -5.0390625 2.84375 C-4.50490723 2.29912109 -3.97075195 1.75449219 -3.42041016 1.19335938 C-2 0 -2 0 0 0 Z " fill="#C1C1DB" transform="translate(199,139)"/>
<path d="M0 0 C0.99 0 1.98 0 3 0 C3 1.32 3 2.64 3 4 C3.99 4 4.98 4 6 4 C6.33 2.68 6.66 1.36 7 0 C7.33 1.65 7.66 3.3 8 5 C0.20312643 6.13180423 -7.88993807 6.98619033 -15 3 C-12.87506859 2.97306425 -10.75004088 2.95363372 -8.625 2.9375 C-7.44164063 2.92589844 -6.25828125 2.91429687 -5.0390625 2.90234375 C-2 3 -2 3 0 4 C0 2.68 0 1.36 0 0 Z " fill="#1D1A3E" transform="translate(110,183)"/>
<path d="M0 0 C0 4.95 0 9.9 0 15 C-0.33 15 -0.66 15 -1 15 C-1.06058594 14.28972656 -1.12117187 13.57945312 -1.18359375 12.84765625 C-1.26738281 11.92855469 -1.35117188 11.00945312 -1.4375 10.0625 C-1.51871094 9.14597656 -1.59992188 8.22945312 -1.68359375 7.28515625 C-1.76044976 5.03840268 -1.76044976 5.03840268 -3 4 C-5.67058851 3.85884839 -8.32432238 3.95752893 -11 4 C-7.63936996 -0.96093005 -6.11787055 -1.22357411 0 0 Z " fill="#F4F4F6" transform="translate(149,144)"/>
<path d="M0 0 C1.41761627 2.83523255 0.52880238 4.8715179 -0.25390625 7.82421875 C-1.40690399 11.18662576 -3.11885359 13.99016574 -5 17 C-5.99 16.67 -6.98 16.34 -8 16 C-6.42986223 10.03347646 -3.24970218 5.17090975 0 0 Z " fill="#BFBFCB" transform="translate(94,159)"/>
<path d="M0 0 C1.98925781 1.11254883 1.98925781 1.11254883 4 3 C4.36230469 5.8190918 4.36230469 5.8190918 4.171875 9.19921875 C4.11386719 10.40771484 4.05585938 11.61621094 3.99609375 12.86132812 C3.91488281 14.12396484 3.83367187 15.38660156 3.75 16.6875 C3.68425781 17.96173828 3.61851562 19.23597656 3.55078125 20.54882812 C3.38551526 23.7006867 3.20118835 26.85026347 3 30 C2.67 30 2.34 30 2 30 C1.97494385 29.37544922 1.9498877 28.75089844 1.92407227 28.10742188 C1.80699619 25.23812877 1.68478249 22.36907575 1.5625 19.5 C1.52318359 18.51773438 1.48386719 17.53546875 1.44335938 16.5234375 C1.20239383 10.9626941 0.78078831 5.51144691 0 0 Z " fill="#D1D0E9" transform="translate(227,135)"/>
<path d="M0 0 C-1.59043379 5.08938811 -4.7446951 8.87456643 -8 13 C-8.99 12.67 -9.98 12.34 -11 12 C-9.43035549 6.8201731 -5.8629386 0 0 0 Z " fill="#EAEAEE" transform="translate(136,151)"/>
<path d="M0 0 C3.44748958 0.64047398 5.84644185 1.99705019 8.75 3.9375 C9.94882813 4.72447266 9.94882813 4.72447266 11.171875 5.52734375 C12.07679688 6.25630859 12.07679688 6.25630859 13 7 C13 7.66 13 8.32 13 9 C7.66584919 7.91508797 3.91482076 7.03715891 0 3 C0 2.01 0 1.02 0 0 Z " fill="#C9C9D8" transform="translate(130,200)"/>
<path d="M0 0 C1 2 1 2 0.3125 4.25 C-1.18526213 7.38816827 -3.01250158 10.15125227 -5 13 C-5.99 12.67 -6.98 12.34 -8 12 C-8.33 12.99 -8.66 13.98 -9 15 C-9.33 14.34 -9.66 13.68 -10 13 C-9.360625 12.2575 -8.72125 11.515 -8.0625 10.75 C-6.21666593 8.2888879 -5.43930826 6.96533074 -5 4 C-4.34 4 -3.68 4 -3 4 C-2.67 3.01 -2.34 2.02 -2 1 C-1.34 0.67 -0.68 0.34 0 0 Z " fill="#C8C8E3" transform="translate(228,175)"/>
<path d="M0 0 C0.31416607 5.23610116 -0.22352378 8.51492303 -3 13 C-3.99 13.495 -3.99 13.495 -5 14 C-4.9131252 12.04082341 -4.80495488 10.08258129 -4.6875 8.125 C-4.62949219 7.03445312 -4.57148437 5.94390625 -4.51171875 4.8203125 C-4.34285156 3.88960937 -4.17398438 2.95890625 -4 2 C-1 0 -1 0 0 0 Z " fill="#E9E9ED" transform="translate(88,153)"/>
<path d="M0 0 C1.125 3.75 1.125 3.75 0 6 C0.99 6 1.98 6 3 6 C1.80100302 9.0831351 0.52299523 12.06279492 -1 15 C-1.66 15 -2.32 15 -3 15 C-3.36263859 9.1977825 -2.25684543 5.36000789 0 0 Z " fill="#404063" transform="translate(87,160)"/>
<path d="M0 0 C1.32 0 2.64 0 4 0 C4.125 2.875 4.125 2.875 4 6 C3.34 6.66 2.68 7.32 2 8 C-0.125 7.625 -0.125 7.625 -2 7 C-2 5.35 -2 3.7 -2 2 C-1.34 2 -0.68 2 0 2 C0 1.34 0 0.68 0 0 Z " fill="#C9C9E0" transform="translate(192,164)"/>
<path d="M0 0 C1.32 0 2.64 0 4 0 C4 1.32 4 2.64 4 4 C3.34 4 2.68 4 2 4 C1.87625 5.134375 1.7525 6.26875 1.625 7.4375 C1.41875 8.613125 1.2125 9.78875 1 11 C0.01 11.495 0.01 11.495 -1 12 C-0.67 9.69 -0.34 7.38 0 5 C-0.99 6.485 -0.99 6.485 -2 8 C-2.66 8 -3.32 8 -4 8 C-2.25 2.25 -2.25 2.25 0 0 Z " fill="#B6B6C4" transform="translate(93,137)"/>
<path d="M0 0 C2.475 0.99 2.475 0.99 5 2 C5 1.34 5 0.68 5 0 C5.66 0 6.32 0 7 0 C7 2.31 7 4.62 7 7 C4.525 6.01 4.525 6.01 2 5 C2 5.66 2 6.32 2 7 C1.34 7 0.68 7 0 7 C0 4.69 0 2.38 0 0 Z " fill="#A69550" transform="translate(135,180)"/>
<path d="M0 0 C0.99 0 1.98 0 3 0 C4.4606285 2.64738916 5 3.89448334 5 7 C2.69 7 0.38 7 -2 7 C-1.125 1.125 -1.125 1.125 0 0 Z " fill="#9C8C4D" transform="translate(105,180)"/>
<path d="M0 0 C3.57812242 3.57812242 2.61939781 9.14166075 2.8125 14 C2.87630859 15.11890625 2.94011719 16.2378125 3.00585938 17.390625 C3.05162109 18.45796875 3.09738281 19.5253125 3.14453125 20.625 C3.18940674 21.60726562 3.23428223 22.58953125 3.28051758 23.6015625 C3.18794678 24.39304688 3.09537598 25.18453125 3 26 C2.01 26.66 1.02 27.32 0 28 C0 18.76 0 9.52 0 0 Z " fill="#6261B5" transform="translate(231,142)"/>
<path d="M0 0 C0.66 0 1.32 0 2 0 C2 0.99 2 1.98 2 3 C2.66 3 3.32 3 4 3 C4 7.62 4 12.24 4 17 C1.18802543 14.18802543 1.30097443 11.15988755 0.875 7.375 C0.78863281 6.66859375 0.70226562 5.9621875 0.61328125 5.234375 C0.40118817 3.49049859 0.19959009 1.7453516 0 0 Z " fill="#9D9DAF" transform="translate(148,143)"/>
<path d="M0 0 C2.31 0 4.62 0 7 0 C7 1.65 7 3.3 7 5 C6.01 5.495 6.01 5.495 5 6 C5 5.34 5 4.68 5 4 C4.01 4 3.02 4 2 4 C2 4.66 2 5.32 2 6 C1.34 6 0.68 6 0 6 C0 4.02 0 2.04 0 0 Z " fill="#A4924E" transform="translate(118,181)"/>
<path d="M0 0 C0.96805366 2.90416097 1.05846827 4.07654856 0.6875 7 C0.60886719 7.680625 0.53023437 8.36125 0.44921875 9.0625 C0 11 0 11 -2 14 C-2.99 14 -3.98 14 -5 14 C-5 14.99 -5 15.98 -5 17 C-5.66 17 -6.32 17 -7 17 C-5.92598892 14.08482708 -5.22189824 12.22189824 -3 10 C-2.39688385 8.31238142 -1.86149763 6.59985524 -1.375 4.875 C-0.98441406 3.50988281 -0.98441406 3.50988281 -0.5859375 2.1171875 C-0.39257812 1.41851562 -0.19921875 0.71984375 0 0 Z " fill="#4847A7" transform="translate(230,171)"/>
<path d="M0 0 C0.66 0.33 1.32 0.66 2 1 C2 1.99 2 2.98 2 4 C2.66 4 3.32 4 4 4 C4.33 5.98 4.66 7.96 5 10 C4.01 9.34 3.02 8.68 2 8 C1.34 8.66 0.68 9.32 0 10 C-0.99 7.03 -1.98 4.06 -3 1 C-2.01 1.495 -2.01 1.495 -1 2 C-0.67 2.99 -0.34 3.98 0 5 C0 3.35 0 1.7 0 0 Z " fill="#8F8EC9" transform="translate(226,128)"/>
<path d="M0 0 C1.2065625 0.0309375 1.2065625 0.0309375 2.4375 0.0625 C2.4375 0.7225 2.4375 1.3825 2.4375 2.0625 C1.1175 2.0625 -0.2025 2.0625 -1.5625 2.0625 C-1.5625 3.0525 -1.5625 4.0425 -1.5625 5.0625 C-0.2425 4.7325 1.0775 4.4025 2.4375 4.0625 C2.4375 5.0525 2.4375 6.0425 2.4375 7.0625 C0.77138095 7.105221 -0.89632885 7.10313832 -2.5625 7.0625 C-3.5625 6.0625 -3.5625 6.0625 -3.6875 3.5625 C-3.51717518 0.15600356 -3.41884482 0.08338646 0 0 Z " fill="#9E8D5C" transform="translate(147.5625,179.9375)"/>
<path d="M0 0 C-0.33 0.99 -0.66 1.98 -1 3 C-8.38461538 4.35384615 -8.38461538 4.35384615 -11.5 2.5625 C-11.995 2.046875 -12.49 1.53125 -13 1 C-8.61414671 0.29826347 -4.44209357 -0.10834375 0 0 Z " fill="#CACADF" transform="translate(190,212)"/>
<path d="M0 0 C0.33 0 0.66 0 1 0 C1 1.65 1 3.3 1 5 C0.01 5 -0.98 5 -2 5 C-2 6.32 -2 7.64 -2 9 C-2.66 9 -3.32 9 -4 9 C-4 9.66 -4 10.32 -4 11 C-5.32 10.67 -6.64 10.34 -8 10 C-7.59007812 9.52949219 -7.18015625 9.05898437 -6.7578125 8.57421875 C-6.21898437 7.95160156 -5.68015625 7.32898438 -5.125 6.6875 C-4.59132812 6.07261719 -4.05765625 5.45773438 -3.5078125 4.82421875 C-1.8359553 2.86501788 -1.8359553 2.86501788 0 0 Z " fill="#4F4EA6" transform="translate(222,188)"/>
<path d="M0 0 C1.21236328 0.01353516 1.21236328 0.01353516 2.44921875 0.02734375 C3.37154297 0.04474609 3.37154297 0.04474609 4.3125 0.0625 C4.6425 1.0525 4.9725 2.0425 5.3125 3.0625 C4.6525 3.0625 3.9925 3.0625 3.3125 3.0625 C3.3125 2.4025 3.3125 1.7425 3.3125 1.0625 C2.6525 1.0625 1.9925 1.0625 1.3125 1.0625 C1.3125 1.7225 1.3125 2.3825 1.3125 3.0625 C-1.1625 2.0725 -1.1625 2.0725 -3.6875 1.0625 C-3.6875 2.3825 -3.6875 3.7025 -3.6875 5.0625 C-4.6775 4.7325 -5.6675 4.4025 -6.6875 4.0625 C-7.0175 3.0725 -7.3475 2.0825 -7.6875 1.0625 C-4.80538698 0.10179566 -2.98899956 -0.04331883 0 0 Z " fill="#292640" transform="translate(138.6875,178.9375)"/>
<path d="M0 0 C0.33 0 0.66 0 1 0 C1 1.98 1 3.96 1 6 C2.65 5.67 4.3 5.34 6 5 C5.125 8.875 5.125 8.875 4 10 C2.35 10 0.7 10 -1 10 C-0.67 6.7 -0.34 3.4 0 0 Z " fill="#E9E9ED" transform="translate(82,169)"/>
<path d="M0 0 C0.99 0.33 1.98 0.66 3 1 C4.1875 4.0625 4.1875 4.0625 5 7 C2.03 6.505 2.03 6.505 -1 6 C-1.042721 4.33388095 -1.04063832 2.66617115 -1 1 C-0.67 0.67 -0.34 0.34 0 0 Z " fill="#A3934E" transform="translate(129,180)"/>
<path d="M0 0 C0.99 0 1.98 0 3 0 C3 2.97 3 5.94 3 9 C2.01 9 1.02 9 0 9 C0 6.03 0 3.06 0 0 Z " fill="#7A6D60" transform="translate(152,179)"/>
<path d="M0 0 C1.32 0.66 2.64 1.32 4 2 C2.88200014 3.33920838 1.75538103 4.67122556 0.625 6 C-0.00148437 6.7425 -0.62796875 7.485 -1.2734375 8.25 C-1.84320313 8.8275 -2.41296875 9.405 -3 10 C-3.66 10 -4.32 10 -5 10 C-3.66511872 6.40608886 -2.03977277 3.24509304 0 0 Z " fill="#141355" transform="translate(150,169)"/>
<path d="M0 0 C0.33 0 0.66 0 1 0 C0.50269348 4.97306516 -0.55302334 8.63799813 -3 13 C-3.33 13 -3.66 13 -4 13 C-3 3 -3 3 0 0 Z " fill="#D9D9ED" transform="translate(230,166)"/>
<path d="M0 0 C-1.36944102 2.94956528 -2.87830409 5.52468811 -5 8 C-5.66 8 -6.32 8 -7 8 C-6.1875 4.5625 -6.1875 4.5625 -5 1 C-2 0 -2 0 0 0 Z " fill="#E3E3E8" transform="translate(108,144)"/>
<path d="M0 0 C1.953125 0.35807292 3.90625 0.71614583 5.859375 1.07421875 C6.189375 2.06421875 6.519375 3.05421875 6.859375 4.07421875 C2.569375 3.74421875 -1.720625 3.41421875 -6.140625 3.07421875 C-2.140625 0.07421875 -2.140625 0.07421875 0 0 Z " fill="#CFCFE2" transform="translate(183.140625,93.92578125)"/>
<path d="M0 0 C0 0.66 0 1.32 0 2 C-0.99 2 -1.98 2 -3 2 C-3 2.66 -3 3.32 -3 4 C-2.01 4.33 -1.02 4.66 0 5 C-3.3 5.66 -6.6 6.32 -10 7 C-3.18421053 0 -3.18421053 0 0 0 Z " fill="#C1C0DC" transform="translate(201,205)"/>
<path d="M0 0 C0 0.99 0 1.98 0 3 C-3.15830185 6.06806466 -5.61999924 7.49942848 -10 8 C-6.88983545 4.71211176 -3.98381075 2.16264012 0 0 Z " fill="#302F6A" transform="translate(136,108)"/>
<path d="M0 0 C-2.34591852 2.7710688 -4.14776201 3.52059284 -7.6875 4.1875 C-8.49574219 4.34605469 -9.30398437 4.50460938 -10.13671875 4.66796875 C-11.05904297 4.83232422 -11.05904297 4.83232422 -12 5 C-12 4.34 -12 3.68 -12 3 C-4.71428571 -0.42857143 -4.71428571 -0.42857143 0 0 Z " fill="#E3E3EC" transform="translate(156,96)"/>
<path d="M0 0 C1.32 0 2.64 0 4 0 C4.33 2.64 4.66 5.28 5 8 C3.35 7.67 1.7 7.34 0 7 C0.33 6.34 0.66 5.68 1 5 C1.66 5 2.32 5 3 5 C3 4.01 3 3.02 3 2 C2.34 2 1.68 2 1 2 C1 2.66 1 3.32 1 4 C0.01 3.67 -0.98 3.34 -2 3 C-1.34 3 -0.68 3 0 3 C0 2.01 0 1.02 0 0 Z " fill="#605546" transform="translate(98,179)"/>
<path d="M0 0 C5.28 0 10.56 0 16 0 C16 0.66 16 1.32 16 2 C10.31150252 3.49697302 5.58190932 2.3348044 0 1 C0 0.67 0 0.34 0 0 Z " fill="#332F41" transform="translate(95,186)"/>
<path d="M0 0 C1.2077558 3.62326739 0.54311128 4.64146369 -1 8 C-1.99 8 -2.98 8 -4 8 C-4 6.68 -4 5.36 -4 4 C-3.34 4 -2.68 4 -2 4 C-1.34 2.68 -0.68 1.36 0 0 Z " fill="#F4F4F6" transform="translate(93,141)"/>
<path d="M0 0 C-0.39803561 2.88575819 -0.79009069 3.82189513 -3.0625 5.75 C-3.701875 6.1625 -4.34125 6.575 -5 7 C-5.66 6.34 -6.32 5.68 -7 5 C-2.25 0 -2.25 0 0 0 Z " fill="#ACACD0" transform="translate(199,139)"/>
<path d="M0 0 C0.66 0 1.32 0 2 0 C2 0.66 2 1.32 2 2 C2.99 2 3.98 2 5 2 C5 1.34 5 0.68 5 0 C5.66 0 6.32 0 7 0 C7 0.99 7 1.98 7 3 C5.1875 4.0625 5.1875 4.0625 3 5 C2.01 4.67 1.02 4.34 0 4 C0 2.68 0 1.36 0 0 Z " fill="#B8A551" transform="translate(94,181)"/>
<path d="M0 0 C1 2 1 2 0.1875 4.5625 C-1 7 -1 7 -3 8 C-3 7.34 -3 6.68 -3 6 C-3.66 6 -4.32 6 -5 6 C-5 5.34 -5 4.68 -5 4 C-4.34 4 -3.68 4 -3 4 C-2.67 3.01 -2.34 2.02 -2 1 C-1.34 0.67 -0.68 0.34 0 0 Z " fill="#B6B5DB" transform="translate(228,175)"/>
<path d="M0 0 C1.12377697 3.30435084 0.89554742 5.0506862 -0.4375 8.25 C-0.72496094 8.95640625 -1.01242188 9.6628125 -1.30859375 10.390625 C-1.53675781 10.92171875 -1.76492187 11.4528125 -2 12 C-2.84062397 8.90226756 -3.08935201 6.21667249 -3 3 C-2.34 3 -1.68 3 -1 3 C-0.67 2.01 -0.34 1.02 0 0 Z " fill="#605FB1" transform="translate(227,167)"/>
<path d="M0 0 C1 2 1 2 0.375 4.5625 C-1 7 -1 7 -3.625 7.8125 C-4.40875 7.874375 -5.1925 7.93625 -6 8 C-4.02 5.36 -2.04 2.72 0 0 Z " fill="#444467" transform="translate(130,160)"/>
<path d="M0 0 C0.33 0 0.66 0 1 0 C1.33 3.3 1.66 6.6 2 10 C1.01 10.66 0.02 11.32 -1 12 C-0.67 8.04 -0.34 4.08 0 0 Z " fill="#E3E3E8" transform="translate(84,155)"/>
<path d="M0 0 C0.66 0.99 1.32 1.98 2 3 C2.99 2.34 3.98 1.68 5 1 C4.25 3.4375 4.25 3.4375 3 6 C0.875 6.8125 0.875 6.8125 -1 7 C-0.67 4.69 -0.34 2.38 0 0 Z " fill="#777790" transform="translate(122,157)"/>
<path d="M0 0 C0.625 1.8125 0.625 1.8125 1 4 C0.01 5.485 0.01 5.485 -1 7 C-1.99 7 -2.98 7 -4 7 C-3.43628586 3.73045798 -2.50037734 2.17424117 0 0 Z " fill="#BDBDCD" transform="translate(124,113)"/>
<path d="M0 0 C0.97791242 2.64036353 1.03638105 3.87266632 0.25 6.625 C-1 9 -1 9 -4 11 C-3.52269162 9.5410574 -3.04308958 8.08286504 -2.5625 6.625 C-2.29566406 5.81289062 -2.02882813 5.00078125 -1.75390625 4.1640625 C-1 2 -1 2 0 0 Z " fill="#292951" transform="translate(92,149)"/>
<path d="M0 0 C0.33 0.99 0.66 1.98 1 3 C1.99 3 2.98 3 4 3 C4 3.66 4 4.32 4 5 C4.66 5.66 5.32 6.32 6 7 C4.02 7 2.04 7 0 7 C0 4.69 0 2.38 0 0 Z " fill="#514865" transform="translate(158,181)"/>
<path d="M0 0 C1.32 0 2.64 0 4 0 C3.67 2.31 3.34 4.62 3 7 C2.34 7 1.68 7 1 7 C0.67 4.69 0.34 2.38 0 0 Z " fill="#A7944F" transform="translate(112,180)"/>
<path d="M0 0 C1.9375 0.6875 1.9375 0.6875 4 2 C4.75 4.625 4.75 4.625 5 7 C2.5 5.1875 2.5 5.1875 0 3 C0 2.01 0 1.02 0 0 Z " fill="#DEDDED" transform="translate(213,112)"/>
<path d="M0 0 C2 0 2 0 3.625 1.3125 C5 3 5 3 5 6 C3.35 6 1.7 6 0 6 C0.66 5.67 1.32 5.34 2 5 C2 4.34 2 3.68 2 3 C1.34 3 0.68 3 0 3 C0 2.01 0 1.02 0 0 Z " fill="#AD9B5F" transform="translate(160,181)"/>
<path d="M0 0 C0.33 0 0.66 0 1 0 C1.28571429 7.42857143 1.28571429 7.42857143 -1 11 C-1.33 11 -1.66 11 -2 11 C-2 9.02 -2 7.04 -2 5 C-1.34 5 -0.68 5 0 5 C0 3.35 0 1.7 0 0 Z " fill="#191944" transform="translate(118,143)"/>
<path d="M0 0 C0.66 0.33 1.32 0.66 2 1 C1.3125 2.9375 1.3125 2.9375 0 5 C-2.625 5.75 -2.625 5.75 -5 6 C-5 5.34 -5 4.68 -5 4 C-4.01 4 -3.02 4 -2 4 C-1.34 2.68 -0.68 1.36 0 0 Z " fill="#D4D4E7" transform="translate(203,203)"/>
<path d="M0 0 C-1.39332574 3.36720387 -2.9789286 4.9859524 -6 7 C-5.37162381 3.35541809 -4.14650034 0 0 0 Z " fill="#E7E7F2" transform="translate(216,195)"/>
<path d="M0 0 C0.99 0 1.98 0 3 0 C1.63016497 3.16115776 1.0109362 3.9927092 -2 6 C-1.125 1.125 -1.125 1.125 0 0 Z " fill="#DCDCE5" transform="translate(127,110)"/>
<path d="M0 0 C0.66 0.33 1.32 0.66 2 1 C1.34 1.66 0.68 2.32 0 3 C0.66 3.66 1.32 4.32 2 5 C0.02 5.99 0.02 5.99 -2 7 C-2 6.34 -2 5.68 -2 5 C-2.66 4.67 -3.32 4.34 -4 4 C-2.68 2.68 -1.36 1.36 0 0 Z " fill="#AEADC4" transform="translate(132,105)"/>
</svg>
